<?xml version="1.0" encoding="iso-8859-1"?>
<!-- Generator: Adobe Illustrator 19.0.0, SVG Export Plug-In . SVG Version: 6.00 Build 0)  -->
<svg version="1.1" id="Capa_1" xmlns="http://www.w3.org/2000/svg" xmlns:xlink="http://www.w3.org/1999/xlink" x="0px" y="0px"
	 viewBox="0 0 512.001 512.001" style="enable-background:new 0 0 512.001 512.001;" xml:space="preserve">
<path style="fill:#6E4848;" d="M355.097,115.613H156.903c0,0,0,75.841-14.536,118.503c-1.153,3.383,0.137,7.091,3.035,9.183
	c14.16,10.225,56.929,37.475,110.598,37.475s96.439-27.25,110.598-37.475c2.897-2.092,4.187-5.801,3.035-9.183
	C355.097,191.454,355.097,115.613,355.097,115.613z"/>
<path style="fill:#E6AF78;" d="M391.292,337.304l-66.68-31.117c-11.63-5.427-19.064-17.099-19.064-29.933v-53.285h-99.097v53.285
	c0,12.834-7.434,24.506-19.064,29.934l-66.68,31.117c-23.26,10.855-38.127,34.199-38.127,59.867V505.94
	c0,3.347,2.714,6.061,6.061,6.061h334.717c3.347,0,6.061-2.714,6.061-6.061V397.171
	C429.419,371.503,414.552,348.158,391.292,337.304z"/>
<path style="fill:#C9C6CA;" d="M391.292,337.304l-34.695-16.191C336.74,356.169,299.166,379.871,256,379.871
	s-80.74-23.702-100.598-58.758l-34.694,16.19c-23.26,10.854-38.127,34.199-38.127,59.867v108.768c0,3.347,2.714,6.061,6.061,6.061
	h334.717c3.347,0,6.061-2.714,6.061-6.061V397.17C429.419,371.503,414.552,348.158,391.292,337.304z"/>
<path style="fill:#B7B2B8;" d="M140.361,328.133c22.522,40.684,65.844,68.255,115.639,68.255s93.117-27.571,115.639-68.255
	l-15.041-7.019C336.74,356.169,299.166,379.871,256,379.871s-80.74-23.702-100.598-58.758L140.361,328.133z"/>
<g>
	<rect x="156.9" y="388.13" style="fill:#E1AA46;" width="16.516" height="49.548"/>
	<rect x="338.58" y="388.13" style="fill:#E1AA46;" width="16.516" height="49.548"/>
</g>
<path style="fill:#FFDC64;" d="M346.839,429.419H165.161c-13.682,0-24.774,11.092-24.774,24.774V512h231.226v-57.806
	C371.613,440.511,360.521,429.419,346.839,429.419z"/>
<path style="fill:#D29B6E;" d="M206.452,259.292c14.677,8.387,31.588,13.224,49.548,13.224s34.871-4.837,49.548-13.224v-36.325
	h-99.097L206.452,259.292L206.452,259.292z"/>
<path style="fill:#F0C087;" d="M346.839,132.129c-0.673,0-1.314,0.12-1.966,0.198l1.966-16.714H165.161l1.966,16.714
	c-0.652-0.078-1.293-0.198-1.966-0.198c-9.121,0-16.516,7.394-16.516,16.516v8.258c0,9.121,7.395,16.516,16.516,16.516
	c2.364,0,4.602-0.515,6.635-1.41l1.197,10.177C177.946,224.278,213.618,256,256,256s78.054-31.722,83.007-73.814l1.197-10.177
	c2.033,0.895,4.271,1.41,6.635,1.41c9.121,0,16.516-7.395,16.516-16.516v-8.258C363.355,139.523,355.96,132.129,346.839,132.129z"/>
<path style="fill:#E6AF78;" d="M346.839,132.129c-0.673,0-1.314,0.12-1.966,0.198l1.966-16.714H165.161l1.966,16.714
	c-0.652-0.078-1.293-0.198-1.966-0.198c-9.121,0-16.516,7.394-16.516,16.516v7.234c0,8.058,5.31,15.607,13.207,17.206
	c3.587,0.726,6.982,0.228,9.944-1.075l0.582,4.946c2.207,31.439,19.838,57.534,47.335,70.835
	c18.194,8.801,37.329,9.721,53.264,6.423c-33.321-7.346-58.267-37.007-58.267-72.536v-22.685c0-8.127,5.905-14.956,13.914-16.337
	c8.51-1.467,17.828-2.268,27.377-2.268c20.946,0,40.946,3.778,53.498,10.106c4.21,2.122,8.933,3.244,13.661,3.244
	c7.225,0,14.379-2.58,20.144-7.265l13.471-10.945C354.003,133.425,350.586,132.129,346.839,132.129z"/>
<path style="fill:#D29B6E;" d="M256.008,214.71c-13.952,0-25.968-4.419-31.355-11.524c-2.758-3.637-2.04-8.815,1.589-11.573
	c3.637-2.766,8.823-2.032,11.573,1.589c1.524,2.016,8.363,4.992,18.194,4.992c9.823,0,16.661-2.976,18.185-4.992
	c2.742-3.621,7.927-4.355,11.573-1.589c3.629,2.758,4.347,7.935,1.589,11.573C281.968,210.29,269.952,214.71,256.008,214.71z"/>
<g>
	<path style="fill:#4B3F4E;" d="M214.71,156.903c-4.565,0-8.258-3.694-8.258-8.258v-8.258c0-4.565,3.694-8.258,8.258-8.258
		c4.565,0,8.258,3.694,8.258,8.258v8.258C222.968,153.21,219.274,156.903,214.71,156.903z"/>
	<path style="fill:#4B3F4E;" d="M297.29,156.903c-4.565,0-8.258-3.694-8.258-8.258v-8.258c0-4.565,3.694-8.258,8.258-8.258
		s8.258,3.694,8.258,8.258v8.258C305.548,153.21,301.855,156.903,297.29,156.903z"/>
</g>
<g>
	<path style="fill:#E1AA46;" d="M181.677,470.71h-8.258c-4.565,0-8.258-3.694-8.258-8.258c0-4.565,3.694-8.258,8.258-8.258h8.258
		c4.565,0,8.258,3.694,8.258,8.258S186.242,470.71,181.677,470.71z"/>
	<path style="fill:#E1AA46;" d="M338.581,470.71h-8.258c-4.565,0-8.258-3.694-8.258-8.258c0-4.565,3.694-8.258,8.258-8.258h8.258
		c4.565,0,8.258,3.694,8.258,8.258S343.145,470.71,338.581,470.71z"/>
</g>
<path style="fill:#FFDC64;" d="M256.005,0c-54.732,0-99.101,23.257-99.101,51.946v63.667h198.203V51.946
	C355.106,23.257,310.737,0,256.005,0z"/>
<path style="fill:#5D5360;" d="M256.008,74.323c-1.024,0-2.065-0.185-3.065-0.589c-4.234-1.694-6.298-6.5-4.605-10.734l3.734-9.323
	h-4.323c-2.742,0-5.298-1.363-6.839-3.629c-1.532-2.266-1.847-5.153-0.831-7.694l8.258-20.645c1.694-4.25,6.54-6.298,10.734-4.605
	c4.234,1.694,6.298,6.5,4.605,10.734l-3.734,9.323h4.323c2.742,0,5.298,1.363,6.839,3.629c1.532,2.266,1.847,5.153,0.831,7.694
	l-8.258,20.645C262.387,72.363,259.283,74.323,256.008,74.323z"/>
<g>
	<path style="fill:#FFC850;" d="M244.4,0.386c-49.255,3.017-87.497,24.932-87.497,51.559v63.667h41.281V47.398
		C198.184,27.593,216.658,10.251,244.4,0.386z"/>
	<path style="fill:#FFC850;" d="M256,123.871c24.618,0,46.569,4.633,60.933,11.874c5.205,2.624,11.362,1.642,15.955-2.09
		l22.204-18.042c-19.296-14.767-56.421-24.774-99.087-24.774c-42.671,0-79.796,10.007-99.092,24.774l22.204,18.042
		c4.593,3.732,10.75,4.714,15.955,2.09C209.436,128.504,231.387,123.871,256,123.871z"/>
</g>
<path style="fill:#E1AA46;" d="M256.005,102.263c37.523,0,70.732,7.747,91.325,19.658l7.763-6.307
	c-19.296-14.767-56.421-24.774-99.088-24.774c-42.671,0-79.796,10.007-99.092,24.774l7.763,6.307
	C185.268,110.011,218.479,102.263,256.005,102.263z"/>
<g>
	<path style="fill:#FFDC64;" d="M338.581,396.387h16.516c4.561,0,8.258-3.698,8.258-8.258v-63.862l-33.032-15.415v79.278
		C330.323,392.69,334.02,396.387,338.581,396.387z"/>
	<path style="fill:#FFDC64;" d="M156.903,396.387h16.516c4.561,0,8.258-3.698,8.258-8.258v-79.278l-33.032,15.415v63.862
		C148.645,392.69,152.342,396.387,156.903,396.387z"/>
</g>
<g>
</g>
<g>
</g>
<g>
</g>
<g>
</g>
<g>
</g>
<g>
</g>
<g>
</g>
<g>
</g>
<g>
</g>
<g>
</g>
<g>
</g>
<g>
</g>
<g>
</g>
<g>
</g>
<g>
</g>
</svg>
