<svg id="Capa_1" enable-background="new 0 0 511.998 511.998" height="512" viewBox="0 0 511.998 511.998" width="512" xmlns="http://www.w3.org/2000/svg"><g><g><g><path d="m188.128 343.089c-4.2.36-8.45.539-12.74.539-5.99 0-11.9-.35-17.7-1.039-48.38-5.663-89.74-34.25-112.92-74.584-1.49-2.617.51-5.843 3.51-5.614 7 .509 17.3.04 28.34-4.824 18.8-8.3 27.11-23.793 29.28-28.207-25.88-1.458-51.75-2.907-77.63-4.365l-.02-.11-1.63-8.86-1.7-9.359s-4.24-1.768-9.53-3.985c-3.19-1.348-6.76-2.857-10.02-4.255-5.36-2.297-7.07-9.049-3.46-13.624l.99-1.249c14.71-18.628 27.95-38.425 38.9-59.481 25.99-49.962 79.25-83.493 140.07-80.936 62.06 2.597 114.27 43.02 134.72 98.356 3.25 8.79 5.7 17.959 7.26 27.408 1.291 7.831-112.169 172.221-135.72 174.189z" fill="#62dbfb"/></g><g><g><path d="m88.173 145.095c-4.246 0-7.687-3.438-7.687-7.679v-14.626c0-4.242 3.441-7.679 7.687-7.679s7.687 3.438 7.687 7.679v14.626c0 4.241-3.441 7.679-7.687 7.679z" fill="#596c76"/></g></g></g><g><path d="m510.087 310.171-.983-1.245c-14.719-18.628-27.948-38.425-38.906-59.482-25.998-49.96-79.245-83.493-140.077-80.938-2.105.088-4.199.22-6.281.395-4.579.384-8.389 17.392-12.841 18.179-70.514 12.465-116.811 69.495-117 142.835-.022 8.441-7.193 5.095-5.876 13.159 3.964 24.263 13.743 46.573 27.859 65.458 1.583 2.118 1.983 4.907 1.013 7.367-1.904 4.826-4.245 9.931-7.137 15.185-5.376 9.77-11.438 17.85-17.297 24.406-4.713 5.273-.086 13.514 6.868 12.206 9.447-1.776 20.209-4.736 31.591-9.639 7.456-3.212 14.091-6.794 19.94-10.443 2.486-1.551 5.617-1.592 8.128-.081 22.642 13.626 49.166 21.466 77.526 21.466 55.889 0 104.659-30.441 130.607-75.628 1.497-2.608-.5-5.832-3.502-5.611-7.006.514-17.301.049-28.342-4.822-18.808-8.298-27.106-23.789-29.283-28.209 25.878-1.452 51.755-2.904 77.632-4.356l.022-.116 1.62-8.86 1.707-9.359s4.239-1.763 9.527-3.989c3.19-1.344 6.764-2.855 10.026-4.249 5.361-2.297 7.075-9.054 3.459-13.629z" fill="#fec165"/></g><g><path d="m188.128 343.089c-4.2.36-8.45.539-12.74.539-5.99 0-11.9-.35-17.7-1.039-1.09-7.961-1.63-16.101-1.61-24.382.23-91.474 70.41-167.836 160.51-176.715 3.25 8.79 5.7 17.959 7.26 27.408 1.291 7.831-112.169 172.221-135.72 174.189z" fill="#01d0fb"/></g><g><path d="m261.037 322.242c5.849 3.649 12.484 7.231 19.939 10.442 14.66 6.315 28.293 9.407 39.41 10.897 4.543.609 7.285-4.916 4.052-8.163-7.304-7.332-15.371-17.117-22.3-29.708-2.891-5.254-5.232-10.359-7.136-15.185-.97-2.46-.57-5.249 1.013-7.368 18.807-25.161 29.917-56.402 29.83-90.242-.021-8.163-.713-16.179-2.003-24.005-77.105 6.467-137.488 71.408-137.688 149.377-.022 8.441.654 16.721 1.971 24.785 23.554-1.975 45.57-9.35 64.783-20.912 2.51-1.511 5.642-1.47 8.129.082z" fill="#fd3581"/></g><g><g><path d="m403.481 276.214c-4.246 0-7.687-3.438-7.687-7.679v-14.627c0-4.242 3.441-7.679 7.687-7.679s7.687 3.438 7.687 7.679v14.627c-.001 4.242-3.442 7.679-7.687 7.679z" fill="#596c76"/></g></g></g></svg>