<svg id="Capa_1" enable-background="new 0 0 512 512" height="512" viewBox="0 0 512 512" width="512" xmlns="http://www.w3.org/2000/svg"><g><g><path d="m77.511 139.971c-1.291 0-2.599-.324-3.802-1.006l-44.217-25.056c-3.713-2.104-5.017-6.819-2.913-10.532 2.104-3.712 6.818-5.017 10.531-2.913l44.217 25.056c3.713 2.104 5.017 6.819 2.913 10.532-1.422 2.51-4.037 3.919-6.729 3.919z" fill="#b4d0d5"/></g><path d="m448.52 56.087v-22.786h-62.439v22.786c0 19.927-8.521 38.902-23.415 52.141-14.893 13.239-23.415 32.214-23.415 52.141v101.876h156.099v-101.877c0-19.927-8.521-38.902-23.415-52.141-14.893-13.238-23.415-32.213-23.415-52.14z" fill="#f1f4f6"/><path d="m471.935 108.228c-14.893-13.239-23.415-32.214-23.415-52.141v-22.786h-22.894v25.8c0 19.927 8.521 38.902 23.415 52.141 14.893 13.239 23.415 32.214 23.415 52.141v98.862h22.894v-101.877c0-19.926-8.522-38.902-23.415-52.14z" fill="#d0e2e7"/><path d="m16.65 158.179h156.098v62.439h-156.098z" fill="#90dfc3"/><path d="m162.446 124.878h-135.494c-5.69 0-10.302 4.612-10.302 10.302v22.999h156.098v-22.999c0-5.69-4.612-10.302-10.302-10.302z" fill="#d0e2e7"/><path d="m16.65 220.618h156.098v41.626h-156.098z" fill="#f6e781"/><path d="m145.691 158.179h27.057v62.439h-27.057z" fill="#78d0b1"/><path d="m145.691 124.878v33.301h27.057v-22.999c0-5.69-4.612-10.302-10.302-10.302z" fill="#b4d0d5"/><path d="m145.691 220.618h27.057v41.626h-27.057z" fill="#f1cb86"/><g><path d="m172.748 108.228h166.504v154.016h-166.504z" fill="#b1e4f9"/><path d="m318.439 72.846h-124.878l-20.813 35.382h166.504z" fill="#d0e2e7"/><path d="m310.114 108.228h29.138v154.016h-29.138z" fill="#90d8f9"/><path d="m318.439 72.846h-29.138l20.813 35.382h29.138z" fill="#b4d0d5"/><circle cx="256" cy="220.618" fill="#dd636e" r="41.626"/></g><path d="m501.594 303.87h-491.187c-5.748 0-10.407-4.659-10.407-10.407v-20.813c0-5.747 4.659-10.407 10.407-10.407h491.187c5.747 0 10.406 4.659 10.406 10.407v20.813c0 5.748-4.659 10.407-10.406 10.407z" fill="#c6865c"/><path d="m501.594 262.244h-37.464c5.747 0 10.406 4.659 10.406 10.407v20.813c0 5.747-4.659 10.406-10.406 10.406h37.463c5.747 0 10.406-4.659 10.406-10.406v-20.814c.001-5.747-4.658-10.406-10.405-10.406z" fill="#b16e3d"/><path d="m474.537 512h-437.074c-11.495 0-20.813-9.318-20.813-20.813v-187.317h478.7v187.317c0 11.495-9.319 20.813-20.813 20.813z" fill="#f4ddb1"/><path d="m464.13 303.87v187.317c0 11.495-9.318 20.813-20.813 20.813h31.22c11.495 0 20.813-9.318 20.813-20.813v-187.317z" fill="#efcb84"/><g><path d="m302.387 365.593c-12.9-12.563-33.461-12.575-46.387-.052-12.925-12.523-33.486-12.511-46.387.052-13.299 12.951-12.923 34.807.203 47.933l38.899 38.899c4.023 4.023 10.546 4.023 14.569 0l38.899-38.899c13.127-13.126 13.502-34.982.204-47.933z" fill="#dd636e"/><path d="m303.641 366.881c-6.317-6.837-14.762-10.393-23.3-10.692.912 4.037 1.41 8.232 1.41 12.545 0 31.323-25.392 56.715-56.715 56.715-1.145 0-2.279-.044-3.407-.111l27.087 27.087c4.023 4.023 10.546 4.023 14.569 0l38.976-38.976c12.71-12.71 13.579-33.364 1.38-46.568z" fill="#da4a54"/></g><path d="m452.746 33.301h-70.89c-3.414 0-6.181-2.767-6.181-6.181v-20.939c0-3.414 2.767-6.181 6.181-6.181h70.89c3.414 0 6.181 2.767 6.181 6.181v20.939c0 3.413-2.768 6.181-6.181 6.181z" fill="#b1e4f9"/><path d="m437.073 0v33.301h15.673c3.414 0 6.181-2.767 6.181-6.181v-20.939c0-3.414-2.767-6.181-6.181-6.181z" fill="#90d8f9"/><g><path d="m339.253 80.572h-166.506c-4.268 0-7.726-3.459-7.726-7.726s3.459-7.726 7.726-7.726h166.505c4.268 0 7.726 3.459 7.726 7.726s-3.458 7.726-7.725 7.726z" fill="#d0e2e7"/></g></g></svg>