<svg id="Capa_1" enable-background="new 0 0 512 512" height="512" viewBox="0 0 512 512" width="512" xmlns="http://www.w3.org/2000/svg"><path d="m466.672 429.184v-218.339c0-15.213-7.676-29.398-20.411-37.72l-48.955-31.99h-69.366l-48.955 31.99c-12.735 8.322-20.411 22.507-20.411 37.72v53.396 247.759h208.097v-82.816z" fill="#fcefde"/><path d="m446.261 173.125-48.954-31.99h-33.996l48.954 31.99c12.735 8.322 20.411 22.507 20.411 37.72v218.339 82.816h33.996v-82.816-218.339c0-15.213-7.676-29.398-20.411-37.72z" fill="#fce4c6"/><path d="m258.575 250.849h208.097v121.561h-208.097z" fill="#a2e1f8"/><path d="m432.676 250.849h33.996v121.561h-33.996z" fill="#82d5f2"/><path d="m111.741 83.725h-78.691v-67.64c0-8.883 7.202-16.085 16.086-16.085h46.519c8.884 0 16.086 7.202 16.086 16.086z" fill="#ef75a7"/><path d="m95.655 0h-41.207c8.884 0 16.086 7.202 16.086 16.086v67.64h41.207v-67.64c0-8.884-7.202-16.086-16.086-16.086z" fill="#eb5793"/><path d="m150.749 123.471c-10.252-9.242-23.565-14.357-37.368-14.357h-84.33c-16.044.001-29.051 13.007-29.051 29.052v348.704c0 13.879 11.252 25.13 25.131 25.13h260.304c13.879 0 25.131-11.251 25.131-25.13v-4.164c0-136.972-58.079-267.521-159.817-359.235zm49.887 159.948c-7.639.419-14.826-3.599-18.494-10.313-14.91-27.29-33.905-52.435-56.542-74.442-5.242-5.096-7.236-12.671-5.207-19.694l.105-.365c4.254-14.725 22.867-19.25 33.448-8.161 24.164 25.323 45.158 53.232 62.689 83.068 7.54 12.831-1.14 29.092-15.999 29.907z" fill="#fce4c6"/><path d="m150.749 123.471c-10.252-9.242-23.565-14.357-37.368-14.357h-33.995c13.803 0 27.116 5.115 37.367 14.357 101.738 91.714 159.817 222.263 159.817 359.235v4.164c0 13.879-11.251 25.13-25.131 25.13h33.996c13.879 0 25.131-11.251 25.131-25.13v-4.164c0-136.972-58.079-267.521-159.817-359.235z" fill="#f8d9b4"/><path d="m17.837 72.393h109.118v36.721h-109.118z" fill="#e7387f"/><path d="m59.774 153.705c14.251 0 25.803 11.552 25.803 25.802v24.92c0 5.278 1.618 10.428 4.637 14.758l66.103 94.803c4.825 6.92 12.729 11.045 21.166 11.045h47.574c11.194 0 21.123 7.211 24.552 17.866 7.017 21.803 18.082 60.561 22.2 99.211 1.62 15.21-10.375 28.447-25.672 28.447h-186.363c-14.251 0-25.803-11.552-25.803-25.802v-265.248c0-14.25 11.552-25.802 25.803-25.802z" fill="#ef75a7"/><path d="m396.81 141.135h-68.374v-51.165c0-9.862 7.995-17.857 17.857-17.857h32.659c9.862 0 17.857 7.995 17.857 17.857v51.165z" fill="#a2e1f8"/><path d="m378.953 72.113h-32.659c-.226 0-.445.025-.668.034 9.55.354 17.189 8.187 17.189 17.823v51.165h33.996v-51.165c-.001-9.862-7.995-17.857-17.858-17.857z" fill="#82d5f2"/><path d="m343.803 512h160.233c4.398 0 7.964-3.566 7.964-7.964v-11.887c0-4.398-3.566-7.964-7.964-7.964h-160.233c-4.398 0-7.964 3.565-7.964 7.964v11.887c0 4.398 3.566 7.964 7.964 7.964z" fill="#e7c33c"/><path d="m490.881 483.67c5.797-5.494 9.397-13.798 9.397-22.532 0-17.175-13.923-31.099-31.099-31.099-7.513 0-14.403 2.664-19.778 7.099-2.77-10.063-11.963-17.465-22.906-17.465-12.862 0-23.332 10.213-23.761 22.97-5.101-3.057-11.067-4.817-17.446-4.817-18.775 0-33.996 15.221-33.996 33.996 0 4.167.75 8.158 2.121 11.847h137.468z" fill="#cbf4ff"/></svg>