<?xml version="1.0"?>
<svg xmlns="http://www.w3.org/2000/svg" id="Capa_1" enable-background="new 0 0 512 512" height="512px" viewBox="0 0 512 512" width="512px"><g><g><path d="m142.263 159.894c26.356 0 47.8-21.443 47.8-47.8s-21.443-47.8-47.8-47.8-47.8 21.443-47.8 47.8 21.444 47.8 47.8 47.8zm0-65.6c9.814 0 17.8 7.985 17.8 17.8s-7.985 17.8-17.8 17.8-17.8-7.985-17.8-17.8 7.986-17.8 17.8-17.8z" data-original="#000000" class="active-path" data-old_color="#000000" fill="#8AFFEC"/><path d="m466.006 61h-223.62c-18.291-35.803-55.657-61-99.623-61-97.483 0-147.968 116.946-81.757 187.94v309.06c0 8.284 6.716 15 15 15h390c8.284 0 15-6.716 15-15v-421c0-8.284-6.716-15-15-15zm-225.05 285v136h-29.95v-76c0-8.284-6.716-15-15-15h-105v-30h75c3.979 0 7.794-1.581 10.606-4.394l150-150c2.813-2.813 4.394-6.628 4.394-10.606v-105h30.05v105c0 8.284 6.716 15 15 15h74.95v29.975h-105.026c-3.979 0-7.794 1.581-10.606 4.394l-90.024 90.025c-2.814 2.813-4.394 6.628-4.394 10.606zm210.05-165h-59.95v-90h59.95zm-150-90v98.787l-141.213 141.213h-68.787v-112.951l41.151 41.152c5.854 5.855 15.357 5.857 21.213 0l68.418-68.418c27.282-27.283 37.362-64.733 30.813-99.783zm-158.243-61c72.504 0 109.133 88.248 57.812 139.569l-57.812 57.812-57.812-57.812c-51.182-51.184-14.825-139.569 57.812-139.569zm-51.757 391h90v61h-90zm179.95 61v-129.787l81.237-81.238h98.813v211.025z" data-original="#000000" class="active-path" data-old_color="#000000" fill="#8AFFEC"/></g></g> </svg>
