<svg id="Camada_1" data-name="Camada 1" xmlns="http://www.w3.org/2000/svg" viewBox="0 0 491.18 491.18"><defs><style>.cls-1{fill:#845ee8;}.cls-2{fill:#f9b0c3;}.cls-3{fill:#fceb4a;}</style></defs><rect class="cls-1" width="491.18" height="491.18" rx="180.64"/><path class="cls-2" d="M730.52,374.43c-22,0-40.25,20.48-47.61,30.14-7.36-9.66-25.57-30.14-47.61-30.14-28.54,0-51.75,26.24-51.75,58.48,0,17.59,7,34,19.2,45.2a4.46,4.46,0,0,0,.65.85L680,555.38a4.14,4.14,0,0,0,5.85,0L765,476.28l.81-.79c.65-.61,1.29-1.23,2-2a4.37,4.37,0,0,0,.73-1,62.49,62.49,0,0,0,13.75-39.57C782.27,400.67,759.06,374.43,730.52,374.43Z" transform="translate(-437.32 -144)"/><path class="cls-3" d="M854.92,384.59,700.79,230.46c-.25-.27-.5-.54-.76-.8a24.26,24.26,0,0,0-34.24,0c-.25.25-.49.51-.73.77L510.9,384.59a24.18,24.18,0,1,0,34.19,34.19L682.91,281,820.73,418.78a24.18,24.18,0,1,0,34.19-34.19Z" transform="translate(-437.32 -144)"/></svg>