<?xml version="1.0" encoding="iso-8859-1"?>
<!-- Generator: Adobe Illustrator 19.0.0, SVG Export Plug-In . SVG Version: 6.00 Build 0)  -->
<svg version="1.1" id="Capa_1" xmlns="http://www.w3.org/2000/svg" xmlns:xlink="http://www.w3.org/1999/xlink" x="0px" y="0px"
	 viewBox="0 0 512.1 512.1" style="enable-background:new 0 0 512.1 512.1;" xml:space="preserve">
<path style="fill:#F6B245;" d="M173.1,101.2c-45.1,0.3-81.7,28.9-81.7,64.1c0,12.4,4.6,24.5,13.3,34.9V317c0,3.8,3,6.8,6.8,6.8
	h260.6V101.2H173.1z"/>
<path style="opacity:0.1;enable-background:new    ;" d="M100.3,146.2h28.6c10.4-25.9,41.4-44.8,78-45h-33.8
	c-36.7,0.2-67.7,19.2-78.1,45.2C96.8,146.3,98.6,146.2,100.3,146.2z"/>
<path style="fill:#FDF3E7;" d="M307,323.9c-3.8,0-6.8-3.1-6.8-6.8V200.2c-8.7-10.4-13.3-22.5-13.3-34.9c0-35.4,37-64.1,82.4-64.1
	s82.4,28.8,82.4,64.1c0,12.4-4.6,24.5-13.3,34.9V317c0,3.8-3,6.8-6.8,6.8H307V323.9z"/>
<g>
	<path style="fill:#F8D5AB;" d="M369.3,101.2c-45.4,0-82.4,28.8-82.4,64.1c0,12.4,4.6,24.5,13.3,34.9V317c0,3.8,3,6.8,6.8,6.8h124.7
		c3.8,0,6.8-3.1,6.8-6.8V200.2c8.7-10.4,13.3-22.5,13.3-34.9C451.7,129.9,414.8,101.2,369.3,101.2z M427,190.6
		c-2.3,2.7-3.5,6.1-3.5,9.6v108.7H315.2V200.2c0-3.5-1.2-6.9-3.5-9.6c-6.4-7.7-9.8-16.4-9.8-25.3c0-12.4,6.5-24.3,18.4-33.5
		c13-10.1,30.4-15.6,49-15.6c18.7,0,36.1,5.6,49,15.6c11.8,9.2,18.4,21.1,18.4,33.5C436.7,174.2,433.4,182.9,427,190.6z"/>
	<path style="fill:#F8D5AB;" d="M474.7,358.5c0,5.7-4.6,10.3-10.3,10.3h-121c-5.7,0-10.3-4.6-10.3-10.3v-14.9
		c0-5.7,4.6-10.3,10.3-10.3h121c5.7,0,10.3,4.6,10.3,10.3V358.5z"/>
</g>
<path style="fill:#F8C36E;" d="M487.2,322.9c0,5.7-4.6,10.3-10.3,10.3H331.5c-5.7,0-10.3-4.6-10.3-10.3V308
	c0-5.7,4.6-10.3,10.3-10.3h145.3c5.7,0,10.3,4.6,10.3,10.3v14.9H487.2z"/>
<path style="fill:#F8D5AB;" d="M468.7,287.4c0,5.7-4.6,10.3-10.3,10.3h-121c-5.7,0-10.3-4.6-10.3-10.3v-14.9
	c0-5.7,4.6-10.3,10.3-10.3h121c5.7,0,10.3,4.6,10.3,10.3V287.4z"/>
<path style="fill:#F39600;" d="M100.3,146.2c-45.1,0.3-81.7,28.9-81.7,64.1c0,12.4,4.6,24.5,13.3,34.9V362c0,3.8,3,6.8,6.8,6.8
	h260.6V146.2H100.3z"/>
<path style="opacity:0.1;enable-background:new    ;" d="M65.8,362V245.2c-8.7-10.4-13.3-22.5-13.3-34.9c0-35.2,36.6-63.9,81.7-64.1
	h-33.9c-45.1,0.3-81.7,28.9-81.7,64.1c0,12.4,4.6,24.5,13.3,34.9V362c0,3.8,3,6.8,6.8,6.8h33.9C68.9,368.9,65.8,365.8,65.8,362z"/>
<path style="fill:#FAE4C8;" d="M234.3,368.9c-3.8,0-6.8-3.1-6.8-6.8V245.2c-8.7-10.4-13.3-22.5-13.3-34.9c0-35.4,37-64.1,82.4-64.1
	S379,175,379,210.3c0,12.4-4.6,24.5-13.3,34.9V362c0,3.8-3,6.8-6.8,6.8L234.3,368.9L234.3,368.9z"/>
<path style="fill:#F8C36E;" d="M296.6,146.2c-45.4,0-82.4,28.8-82.4,64.1c0,12.4,4.6,24.5,13.3,34.9V362c0,3.8,3,6.8,6.8,6.8H359
	c3.8,0,6.8-3.1,6.8-6.8V245.2c8.7-10.4,13.3-22.5,13.3-34.9C379,175,342,146.2,296.6,146.2z M354.2,235.6c-2.3,2.7-3.5,6.1-3.5,9.6
	v108.7H242.5V245.2c0-3.5-1.2-6.9-3.5-9.6c-6.4-7.7-9.8-16.4-9.8-25.3c0-12.4,6.5-24.3,18.4-33.5c13-10.1,30.4-15.6,49-15.6
	c18.7,0,36.1,5.6,49,15.6c11.8,9.2,18.4,21.1,18.4,33.5C364,219.2,360.6,228,354.2,235.6z"/>
<path style="fill:#FF6489;" d="M512,405.7c0,2.8-2.3,5.2-5.2,5.2H5.2c-2.8,0-5.2-2.3-5.2-5.2v-34.8c0-2.8,2.3-5.2,5.2-5.2h501.7
	c2.8,0,5.2,2.3,5.2,5.2v34.8H512z"/>
<path style="fill:#FF7697;" d="M48,380.5H0v15h48c4.1,0,7.5-3.4,7.5-7.5S52.1,380.5,48,380.5z"/>
<path style="opacity:0.1;enable-background:new    ;" d="M31.4,405.7v-34.8c0-2.8,2.3-5.2,5.2-5.2H5.2c-2.8,0-5.2,2.3-5.2,5.2v34.8
	c0,2.8,2.3,5.2,5.2,5.2h31.4C33.7,410.8,31.4,408.5,31.4,405.7z"/>
<g>
	<path style="fill:#F8D5AB;" d="M338.7,211c-2,0-3.9-0.8-5.3-2.2c-1.4-1.4-2.2-3.3-2.2-5.3s0.8-3.9,2.2-5.3c1.4-1.4,3.3-2.2,5.3-2.2
		s3.9,0.8,5.3,2.2c1.4,1.4,2.2,3.3,2.2,5.3s-0.8,3.9-2.2,5.3C342.6,210.2,340.7,211,338.7,211z"/>
	<path style="fill:#F8D5AB;" d="M302.5,227c-2,0-3.9-0.8-5.3-2.2c-1.4-1.4-2.2-3.3-2.2-5.3s0.8-3.9,2.2-5.3c1.4-1.4,3.3-2.2,5.3-2.2
		s3.9,0.8,5.3,2.2c1.4,1.4,2.2,3.3,2.2,5.3s-0.8,3.9-2.2,5.3C306.4,226.1,304.4,227,302.5,227z"/>
</g>
<path style="fill:#FDF3E7;" d="M335.3,258.9c-2,0-3.9-0.8-5.3-2.2c-1.4-1.4-2.2-3.3-2.2-5.3s0.8-3.9,2.2-5.3
	c1.4-1.4,3.3-2.2,5.3-2.2s3.9,0.8,5.3,2.2c1.4,1.4,2.2,3.3,2.2,5.3s-0.8,3.9-2.2,5.3C339.2,258.1,337.3,258.9,335.3,258.9z"/>
<path style="fill:#F8D5AB;" d="M335.3,296.5c-2,0-3.9-0.8-5.3-2.2c-1.4-1.4-2.2-3.3-2.2-5.3s0.8-3.9,2.2-5.3
	c1.4-1.4,3.3-2.2,5.3-2.2s3.9,0.8,5.3,2.2c1.4,1.4,2.2,3.3,2.2,5.3s-0.8,3.9-2.2,5.3C339.2,295.7,337.3,296.5,335.3,296.5z"/>
<g>
	<path style="fill:#FDF3E7;" d="M335.3,334.2c-2,0-3.9-0.8-5.3-2.2c-1.4-1.4-2.2-3.3-2.2-5.3s0.8-3.9,2.2-5.3
		c1.4-1.4,3.3-2.2,5.3-2.2s3.9,0.8,5.3,2.2c1.4,1.4,2.2,3.3,2.2,5.3s-0.8,3.9-2.2,5.3C339.2,333.4,337.3,334.2,335.3,334.2z"/>
	<path style="fill:#FDF3E7;" d="M310.4,311.4c-2,0-3.9-0.8-5.3-2.2c-1.4-1.4-2.2-3.3-2.2-5.3s0.8-3.9,2.2-5.3s3.3-2.2,5.3-2.2
		s3.9,0.8,5.3,2.2c1.4,1.4,2.2,3.3,2.2,5.3s-0.8,3.9-2.2,5.3C314.3,310.6,312.4,311.4,310.4,311.4z"/>
</g>
<g>
	<path style="fill:#F39600;" d="M58.6,260.3c0-4.1-3.4-7.5-7.5-7.5H31.9v15h19.2C55.3,267.8,58.6,264.4,58.6,260.3z"/>
	<path style="fill:#F39600;" d="M58.6,286.5c0-4.1-3.4-7.5-7.5-7.5H31.9v15h19.2C55.3,294,58.6,290.6,58.6,286.5z"/>
	<path style="fill:#F39600;" d="M58.6,312.7c0-4.1-3.4-7.5-7.5-7.5H31.9v15h19.2C55.3,320.2,58.6,316.9,58.6,312.7z"/>
	<path style="fill:#F39600;" d="M58.6,339c0-4.1-3.4-7.5-7.5-7.5H31.9v15h19.2C55.3,346.5,58.6,343.1,58.6,339z"/>
</g>
<g>
	<path style="fill:#F6B245;" d="M412.5,155c-2,0-3.9-0.8-5.3-2.2c-1.4-1.4-2.2-3.3-2.2-5.3s0.8-3.9,2.2-5.3c1.4-1.4,3.3-2.2,5.3-2.2
		s3.9,0.8,5.3,2.2c1.4,1.4,2.2,3.3,2.2,5.3s-0.8,3.9-2.2,5.3C416.4,154.2,414.5,155,412.5,155z"/>
	<path style="fill:#F6B245;" d="M418.5,181.8c-2,0-3.9-0.8-5.3-2.2c-1.4-1.4-2.2-3.3-2.2-5.3s0.8-3.9,2.2-5.3
		c1.4-1.4,3.3-2.2,5.3-2.2s3.9,0.8,5.3,2.2c1.4,1.4,2.2,3.3,2.2,5.3s-0.8,3.9-2.2,5.3C422.4,181,420.5,181.8,418.5,181.8z"/>
</g>
<g>
	<path style="fill:#F8D5AB;" d="M405.1,212.7c-2,0-3.9-0.8-5.3-2.2c-1.4-1.4-2.2-3.3-2.2-5.3s0.8-3.9,2.2-5.3
		c1.4-1.4,3.3-2.2,5.3-2.2s3.9,0.8,5.3,2.2c1.4,1.4,2.2,3.3,2.2,5.3s-0.8,3.9-2.2,5.3C409,211.9,407.1,212.7,405.1,212.7z"/>
	<path style="fill:#F8D5AB;" d="M387.6,169.8c-2,0-3.9-0.8-5.3-2.2c-1.4-1.4-2.2-3.3-2.2-5.3s0.8-3.9,2.2-5.3
		c1.4-1.4,3.3-2.2,5.3-2.2s3.9,0.8,5.3,2.2c1.4,1.4,2.2,3.3,2.2,5.3s-0.8,3.9-2.2,5.3C391.5,169,389.6,169.8,387.6,169.8z"/>
</g>
<g>
</g>
<g>
</g>
<g>
</g>
<g>
</g>
<g>
</g>
<g>
</g>
<g>
</g>
<g>
</g>
<g>
</g>
<g>
</g>
<g>
</g>
<g>
</g>
<g>
</g>
<g>
</g>
<g>
</g>
</svg>
