<?xml version="1.0" encoding="iso-8859-1"?>
<!-- Generator: Adobe Illustrator 19.0.0, SVG Export Plug-In . SVG Version: 6.00 Build 0)  -->
<svg version="1.1" id="Capa_1" xmlns="http://www.w3.org/2000/svg" xmlns:xlink="http://www.w3.org/1999/xlink" x="0px" y="0px"
	 viewBox="0 0 512 512" style="enable-background:new 0 0 512 512;" xml:space="preserve">
<path style="fill:#D2F5FF;" d="M429.311,91.187H82.689c-14.403,0-26.079,11.676-26.079,26.08v273.24
	c0,14.403,11.676,26.08,26.079,26.08h346.622c14.403,0,26.079-11.676,26.079-26.08v-273.24
	C455.39,102.863,443.714,91.187,429.311,91.187z"/>
<path style="fill:#9CC9D3;" d="M429.311,91.186h-23.664c14.403,0,26.079,11.677,26.079,26.08v273.24
	c0,14.403-11.676,26.08-26.079,26.08h23.664c14.403,0,26.079-11.677,26.079-26.08v-273.24
	C455.39,102.863,443.714,91.186,429.311,91.186z"/>
<path style="fill:#FFCCAA;" d="M321.302,289.041h-4.705v-30.689c0-29.69-24.069-53.758-53.758-53.758h-13.545
	c-29.69,0-53.758,24.068-53.758,53.758v30.689h-4.705c-7.808,0-14.138,6.33-14.138,14.138v6.687c0,7.808,6.33,14.138,14.138,14.138
	h4.793c1.65,31.959,28.08,57.362,60.443,57.362c16.182,0,30.877-6.348,41.738-16.695s17.875-24.693,18.706-40.667h4.793
	c7.808,0,14.138-6.33,14.138-14.138v-6.687C335.441,295.371,329.111,289.041,321.302,289.041z"/>
<g>
	<path style="fill:#475D6D;" d="M256.066,348.558c-8.541,0-16.58-3.327-22.637-9.369c-3.061-3.06-5.426-6.627-7.033-10.607
		c-1.552-3.841,0.305-8.212,4.146-9.763c3.842-1.553,8.212,0.305,9.763,4.146c0.849,2.102,2.102,3.989,3.724,5.61
		c3.22,3.212,7.497,4.983,12.038,4.983c6.964,0,13.152-4.162,15.766-10.604c1.557-3.838,5.928-5.686,9.77-4.131
		c3.838,1.558,5.688,5.932,4.131,9.77C280.812,340.721,269.167,348.558,256.066,348.558z"/>
	<path style="fill:#475D6D;" d="M225.765,300.461c-4.143,0-7.5-3.357-7.5-7.5v-2.925c0-4.143,3.357-7.5,7.5-7.5s7.5,3.357,7.5,7.5
		v2.925C233.265,297.104,229.907,300.461,225.765,300.461z"/>
	<path style="fill:#475D6D;" d="M286.368,300.461c-4.143,0-7.5-3.357-7.5-7.5v-2.925c0-4.143,3.357-7.5,7.5-7.5s7.5,3.357,7.5,7.5
		v2.925C293.868,297.104,290.511,300.461,286.368,300.461z"/>
</g>
<path style="fill:#F9DC6A;" d="M176.559,184.831h87.178c29.194,0,52.86,23.666,52.86,52.86v20.661H211.496
	c-19.295,0-34.937-15.642-34.937-34.937V184.831z"/>
<polygon style="fill:#8BA7BC;" points="224.224,416.586 211.858,480.673 300.142,480.673 287.776,416.586 "/>
<g>
	<polygon style="fill:#718A9E;" points="292.03,438.633 287.776,416.586 224.224,416.586 219.97,438.633 	"/>
	<path style="fill:#718A9E;" d="M340.032,512H171.968v-5.356c0-14.343,11.627-25.971,25.971-25.971h116.122
		c14.343,0,25.971,11.627,25.971,25.971V512z"/>
</g>
<path style="fill:#8BA7BC;" d="M429.311,91.186H82.689c-14.403,0-26.079,11.676-26.079,26.08v28.291h398.78v-28.291
	C455.39,102.863,443.714,91.186,429.311,91.186z"/>
<path style="fill:#718A9E;" d="M429.311,91.186h-23.664c14.403,0,26.079,11.677,26.079,26.08v28.291h23.664v-28.291
	C455.39,102.863,443.714,91.186,429.311,91.186z"/>
<path style="fill:#344968;" d="M266.717,125.872h-21.434c-4.143,0-7.5-3.357-7.5-7.5s3.357-7.5,7.5-7.5h21.434
	c4.143,0,7.5,3.357,7.5,7.5S270.859,125.872,266.717,125.872z"/>
<g>
	<path style="fill:#8BA7BC;" d="M291.418,70.604c-2.446,0-4.845-1.195-6.283-3.396c-6.423-9.82-17.259-15.684-28.984-15.684
		s-22.562,5.863-28.984,15.684c-2.267,3.467-6.915,4.438-10.382,2.171c-3.466-2.267-4.438-6.915-2.171-10.382
		c9.203-14.071,24.731-22.473,41.537-22.473s32.334,8.401,41.537,22.473c2.268,3.467,1.295,8.115-2.171,10.382
		C294.25,70.207,292.826,70.604,291.418,70.604z"/>
	<path style="fill:#8BA7BC;" d="M321.996,50.632c-2.446,0-4.844-1.195-6.283-3.395C302.506,27.052,280.239,15,256.15,15
		c-24.088,0-46.354,12.052-59.563,32.237c-2.268,3.467-6.918,4.437-10.382,2.169c-3.466-2.268-4.438-6.916-2.169-10.382
		C200.025,14.589,226.984,0,256.15,0c29.168,0,56.126,14.589,72.115,39.024c2.268,3.466,1.296,8.114-2.17,10.383
		C324.829,50.235,323.404,50.632,321.996,50.632z"/>
</g>
<g>
</g>
<g>
</g>
<g>
</g>
<g>
</g>
<g>
</g>
<g>
</g>
<g>
</g>
<g>
</g>
<g>
</g>
<g>
</g>
<g>
</g>
<g>
</g>
<g>
</g>
<g>
</g>
<g>
</g>
</svg>
